<svg width="127" height="127" viewBox="0 0 127 127" fill="none" xmlns="http://www.w3.org/2000/svg">
<path d="M83.0025 7.905C73.5681 7.905 64.5201 11.6528 57.8489 18.3239C51.1778 24.9951 47.43 34.0431 47.43 43.4775C47.4266 46.9738 47.9461 50.451 48.9715 53.7935L7.905 94.86V118.575H31.62L72.6865 77.5085C77.7715 79.0688 83.1417 79.4688 88.4018 78.6792C93.6619 77.8896 98.678 75.9304 103.081 72.9459C107.484 69.9614 111.161 66.0275 113.843 61.4339C116.524 56.8402 118.141 51.7037 118.575 46.4024C119.373 37.9659 117.053 29.5294 112.053 22.6874C108.74 18.0865 104.374 14.3443 99.3207 11.7729C94.2673 9.20155 88.6724 7.87539 83.0025 7.905ZM83.0025 71.145C80.324 71.1345 77.6612 70.7351 75.0975 69.9593L70.5521 68.5759L67.1925 71.9355L54.6236 84.5044L49.0505 79.05L43.4775 84.623L48.932 90.0775L42.6475 96.3619L37.193 90.9075L31.62 96.4805L37.0745 101.935L28.3394 110.67H15.81V98.1406L54.5445 59.2875L57.9041 55.9279L56.7579 52.173C54.7686 45.9175 55.0222 39.1642 57.475 33.0755C59.9278 26.9868 64.4264 21.9436 70.1964 18.8139C74.353 16.641 78.9937 15.5604 83.6826 15.6738C88.3715 15.7871 92.9546 17.0905 97.0014 19.4617C101.048 21.8328 104.426 25.1938 106.817 29.2289C109.208 33.2639 110.534 37.8406 110.67 42.5289C110.944 48.1221 109.436 53.6581 106.362 58.3389C103.86 62.2668 100.408 65.4998 96.3249 67.7384C92.2415 69.977 87.6592 71.1487 83.0025 71.145Z" fill="#62FF47"/>
<path d="M86.955 47.43C91.3208 47.43 94.86 43.8908 94.86 39.525C94.86 35.1592 91.3208 31.62 86.955 31.62C82.5892 31.62 79.05 35.1592 79.05 39.525C79.05 43.8908 82.5892 47.43 86.955 47.43Z" fill="#62FF47"/>
</svg>
